<?xml version="1.0" encoding="UTF-8"?>
<svg id="Ebene_1" xmlns="http://www.w3.org/2000/svg" version="1.1" viewBox="0 0 516 516">
  <!-- Generator: Adobe Illustrator 30.6.0, SVG Export Plug-In . SVG Version: 2.1.4 Build 109)  -->
  <defs>
    <style>
      .st0 {
        fill: #1e2c52;
      }

      .st1 {
        fill: #fff;
      }
    </style>
  </defs>
  <circle class="st1" cx="258" cy="258" r="258"/>
  <path class="st0" d="M333.3,272.9c-11,0-20-9-20-20,0-16.7-13.5-30.2-30.2-30.2s-20-9-20-20,9-20,20-20c38.7,0,70.2,31.5,70.2,70.2s-9,20-20,20Z"/>
  <path class="st0" d="M157.6,353.3c-52.5,0-95.3-42.8-95.3-95.3s42.8-95.3,95.3-95.3,95.3,42.8,95.3,95.3-42.8,95.3-95.3,95.3ZM157.6,202.7c-30.5,0-55.3,24.8-55.3,55.3s24.8,55.3,55.3,55.3,55.3-24.8,55.3-55.3-24.8-55.3-55.3-55.3Z"/>
  <path class="st0" d="M433.6,333.6c-11,0-20-9-20-20v-100.4c0-16.7-13.5-30.2-30.2-30.2s-20-9-20-20,9-20,20-20c38.7,0,70.2,31.5,70.2,70.2v100.4c0,11-9,20-20,20Z"/>
  <path class="st0" d="M333.2,355.8c-11,0-20-9-20-20v-122.6c0-38.7,31.5-70.2,70.2-70.2s20,9,20,20-9,20-20,20c-16.7,0-30.2,13.5-30.2,30.2v122.6c0,11-9,20-20,20Z"/>
  <path class="st0" d="M232.9,402.1c-11,0-20-9-20-20v-129.2c0-38.7,31.5-70.2,70.2-70.2s20,9,20,20-9,20-20,20c-16.7,0-30.2,13.5-30.2,30.2v129.2c0,11-9,20-20,20Z"/>
</svg>