<?xml version="1.0" encoding="UTF-8"?><svg id="Ebene_1" xmlns="http://www.w3.org/2000/svg" viewBox="0 0 74.75 73.76"><path d="M71,39.78c-1.5-.25-2.91.77-3.16,2.26-.33,2-.86,3.98-1.58,5.88-1.11,2.94-2.65,5.7-4.59,8.19-.63.81-1.3,1.59-2,2.33h-.01c-.06.06-.12.13-.19.21-1.39,1.44-2.91,2.75-4.55,3.9-.82.58-1.66,1.11-2.52,1.6-1.51.73-3.04,1.23-4.54,1.46-3.9.61-5.85-.8-6.66-1.69-1.47-1.6-2.21-4.36-1.9-7.03.35-2.99,1.93-5.59,4.46-7.3l-.02-.02c.9-.7,1.78-1.43,2.63-2.22,5.05-4.62,8.71-10.28,10.58-16.36.45-1.45-.37-2.99-1.82-3.43-1.45-.45-2.99.37-3.43,1.82-1.59,5.15-4.71,9.96-9.04,13.93-2.68,2.45-5.64,4.42-8.82,5.85-3.03,1.37-6.12,2.18-9.18,2.43-.64.05-1.27.08-1.89.08-5.27,0-9.82-1.83-12.95-5.25-.93-1.01-1.72-2.16-2.35-3.39-.76-1.49-1.29-3.13-1.58-4.88-.26-1.56-.32-3.19-.19-4.87,0-.09,0-.17,0-.26.35-2.87,1.1-5.67,2.23-8.35,1.58-3.74,3.84-7.09,6.73-9.98,2.88-2.88,6.24-5.15,9.98-6.73,3.87-1.64,7.98-2.47,12.21-2.47,5.08,0,9.93,1.18,14.41,3.5,1.35.7,3.01.17,3.7-1.18.7-1.35.17-3.01-1.18-3.7-2.56-1.33-5.28-2.35-8.08-3.04-2.88-.71-5.86-1.07-8.85-1.07-4.98,0-9.81.98-14.36,2.9-4.39,1.86-8.34,4.52-11.72,7.9-3.39,3.39-6.04,7.33-7.9,11.72-1.92,4.55-2.9,9.38-2.9,14.36s.98,9.81,2.9,14.36c1.86,4.39,4.52,8.34,7.9,11.72,3.39,3.39,7.33,6.04,11.72,7.9,4.55,1.92,9.38,2.9,14.36,2.9,6.44,0,12.66-1.65,18.18-4.79,2.19-1.09,4.31-2.55,6.24-4.32.8-.73,1.56-1.51,2.26-2.31.87-.91,1.69-1.86,2.46-2.86,2.28-2.93,4.09-6.17,5.39-9.63.84-2.23,1.46-4.56,1.85-6.92.25-1.5-.77-2.91-2.26-3.16Z" style="fill:#434344;"/><circle cx="26.32" cy="38.35" r="8.22" style="fill:#434344;"/><path d="M72.35,16.23h-5.1v-5.1c0-1.33-1.08-2.41-2.41-2.41s-2.41,1.08-2.41,2.41v5.1h-5.1c-1.33,0-2.41,1.08-2.41,2.41s1.08,2.41,2.41,2.41h5.1v5.1c0,1.33,1.08,2.41,2.41,2.41s2.41-1.08,2.41-2.41v-5.1h5.1c1.33,0,2.41-1.08,2.41-2.41s-1.08-2.41-2.41-2.41Z" style="fill:#434344;"/></svg>